<svg width="17" height="16" viewBox="0 0 17 16" fill="none" xmlns="http://www.w3.org/2000/svg">
<path d="M11.8467 0.50293C11.8352 0.50293 11.8199 0.50293 11.8084 0.50293C10.2879 0.50293 8.94366 1.30719 8.17003 2.49444C7.39641 1.30719 6.05213 0.50293 4.53169 0.50293C4.5202 0.50293 4.50488 0.50293 4.49339 0.50293C2.12273 0.525909 0.203979 2.45231 0.203979 4.83064C0.203979 6.24768 0.824412 8.25834 2.03464 9.91283C4.3402 13.0648 8.17003 15.8223 8.17003 15.8223C8.17003 15.8223 11.9999 13.0648 14.3054 9.91283C15.5157 8.25834 16.1361 6.24768 16.1361 4.83064C16.1361 2.45231 14.2173 0.525909 11.8467 0.50293Z" fill="black"/>
</svg>
