<svg width="17" height="17" viewBox="0 0 17 17" fill="none" xmlns="http://www.w3.org/2000/svg">
<path d="M9.99707 6.80087L6.66354 10.1344C6.23532 9.70618 5.9718 9.11985 5.9718 8.46764C5.9718 7.16321 7.02588 6.10913 8.33031 6.10913C8.98252 6.10913 9.56885 6.37265 9.99707 6.80087Z" stroke="#1F1F1F" stroke-width="0.988201" stroke-linecap="round" stroke-linejoin="round"/>
<path d="M12.1646 4.36324C11.0117 3.49362 9.69411 3.01929 8.3304 3.01929C6.00483 3.01929 3.83738 4.38959 2.32872 6.76127C1.7358 7.69018 1.7358 9.25154 2.32872 10.1804C2.84918 10.9974 3.45527 11.7023 4.11407 12.2688" stroke="#1F1F1F" stroke-width="0.988201" stroke-linecap="round" stroke-linejoin="round"/>
<path d="M5.9718 13.4285C6.72283 13.7447 7.51998 13.916 8.33031 13.916C10.6559 13.916 12.8233 12.5457 14.332 10.174C14.9249 9.24508 14.9249 7.68372 14.332 6.75481C14.1146 6.41224 13.8774 6.08943 13.6337 5.78638" stroke="#1F1F1F" stroke-width="0.988201" stroke-linecap="round" stroke-linejoin="round"/>
<path d="M10.6431 8.92883C10.4718 9.85774 9.71419 10.6154 8.78528 10.7867" stroke="#1F1F1F" stroke-width="0.988201" stroke-linecap="round" stroke-linejoin="round"/>
<path d="M6.66367 10.1343L1.74243 15.0555" stroke="#1F1F1F" stroke-width="0.988201" stroke-linecap="round" stroke-linejoin="round"/>
<path d="M14.9186 1.87964L9.99731 6.80088" stroke="#1F1F1F" stroke-width="0.988201" stroke-linecap="round" stroke-linejoin="round"/>
</svg>
